<?xml version="1.0" encoding="UTF-8"?>
<svg id="Layer_1" data-name="Layer 1" xmlns="http://www.w3.org/2000/svg" viewBox="0 0 254.54 208.01">
  <defs>
    <style>
      .cls-1 {
        fill: #007cff;
        fill-rule: evenodd;
      }
    </style>
  </defs>
  <path class="cls-1" d="M123.23,195.17h0c31.1,0,56.27-23.68,56.27-52.63s-25.18-51.84-56.27-51.84-56.28,23.49-56.28,51.84,25.16,52.63,56.28,52.63h0ZM1.06,1.08L83.53,0h.58l.55.56,23.58,31.1,144.14-1.11h1.12v1.11l1.04,175.18v1.16H0V1.67l1.06-.59ZM83.06,2.75L2.1,3.88v201.94h249.83l-.58-173.08-143.67,1.02h-1.05v-.48L83.06,2.75ZM160.75,173.66l-35.35-64.28c-.56-1.09-1.13-1.71-2.16-1.71s-2.15.62-2.65,1.71l-35.35,64.28c0,1.1,0,1.62.49,2.63,0,.62,1.02,1.15,2.15,1.15h70.72c1.13,0,1.59-.53,2.15-1.15.57-1.01.57-1.53,0-2.63h0ZM92.11,172.13h0l31.13-55.8,31.1,55.8h-62.22ZM120.02,135.09v18.66c0,2.19,1.06,3.31,3.21,3.31,1.61,0,3.21-1.12,3.21-3.31v-18.66c0-2.19-1.6-3.69-3.21-3.69-2.15,0-3.21,1.49-3.21,3.69h0ZM123.23,160.8c-2.15,0-3.79,1.61-3.79,3.33,0,2,1.63,3.68,3.79,3.68,1.61,0,3.21-1.68,3.21-3.68,0-1.72-1.6-3.33-3.21-3.33h0Z"/>
</svg>