<?xml version="1.0" encoding="UTF-8"?>
<svg id="Layer_1" data-name="Layer 1" xmlns="http://www.w3.org/2000/svg" viewBox="0 0 312.46 312.76">
  <defs>
    <style>
      .cls-1 {
        fill: #007cff;
      }
    </style>
  </defs>
  <path class="cls-1" d="M156.25,0C69.98,0,0,69.93,0,156.31s69.98,156.44,156.25,156.44,156.21-69.97,156.21-156.44S242.53,0,156.25,0h0ZM37.21,156.31h0c.19-65.73,53.31-118.86,119.04-118.86,25.18,0,48.27,7.7,67.56,21.21L61.73,228.59c-15.34-20.07-24.32-45.04-24.51-72.28h0ZM156.25,275.4h0c-25.23,0-48.27-7.79-67.7-21.02L250.68,84.28c15.35,20.1,24.67,44.92,24.67,72.03-.19,65.73-53.33,119.08-119.1,119.08h0Z"/>
</svg>